# xmcd
#
# Track frame offsets:
#	150
#	13924
#	29921
#	47179
#	60136
#	92830
#	108821
#	130607
#	152295
#
# Disc length: 2247 seconds
#
# Revision: 2
# Processed by: cddbd v1.4PL0 Copyright (c) Steve Scherf et al.
# Submitted via: audiograbber 1.81.02
#
DISCID=6708c509
DTITLE=Hal - Gemini CD1
DYEAR=2001
DGENRE=Ambient
TTITLE0=Take my blues away
TTITLE1=Country Pie
TTITLE2=Rock my soul
TTITLE3=Mornin' blues
TTITLE4=Ride on!
TTITLE5=Back to New Orleans
TTITLE6=Midnight oil
TTITLE7=Let's fly
TTITLE8=Just one more dance
EXTD=
EXTT0=
EXTT1=
EXTT2=
EXTT3=
EXTT4=
EXTT5=
EXTT6=
EXTT7=
EXTT8=
PLAYORDER=
